# xmcd CD database file
#
# Track frame offsets:
#	150
#	13510
#	28962
#	45117
#	57555
#	69437
#	86150
#	100707
#	115927
#	132067
#	144662
#	159712
#	172377
#	186455
#	199252
#	214660
#
# Disc length: 3038 seconds
#
# Revision: 2
# Processed by: cddbd v1.5.2PL0 Copyright (c) Steve Scherf et al.
# Submitted via: CDex 1.40Beta8
#
DISCID=ec0bdc10
DTITLE=Various Artist - Kilometer 330 - Die schönsten Country- und Trucker Songs  - Folge 4 CD2
DYEAR=1992
DGENRE=Country
TTITLE0=Jonny Hill - Nur allzugern
TTITLE1=Frank Baum - Trucker, Du und Ich
TTITLE2=Hanna and Daana - Er ist so wie Du
TTITLE3=Joe Hodgkins - Montag Morgen
TTITLE4=Country Rose - Bei Country Rose ist was los
TTITLE5=Jonny Hill - Nie wieder einsam
TTITLE6=Susan Bellamy - Lieb ist mehr als ein Wort
TTITLE7=Tennessee - Nur mit Dir
TTITLE8=Linda Feller - Engel lieben meist die Falschen
TTITLE9=Tom Astor - Von New York City nach L.A.
TTITLE10=Mike Herman - Hey Trucker
TTITLE11=Dickey Lee - Liebe die niemehr vergeht
TTITLE12=Jonny Hill - Ich danke Dir
TTITLE13=Truck Riders - Country Lady
TTITLE14=Mike Tauer - Daddy's Freund
TTITLE15=Tex Haper - Er tut's für Marianne
EXTD=YEAR: 1992 ID3G: 2
EXTT0=
EXTT1=
EXTT2=
EXTT3=
EXTT4=
EXTT5=
EXTT6=
EXTT7=
EXTT8=
EXTT9=
EXTT10=
EXTT11=
EXTT12=
EXTT13=
EXTT14=
EXTT15=
PLAYORDER=
